# xmcd
#
# Track frame offsets:
#	150
#	24433
#	36733
#	54827
#	69028
#	86835
#	102000
#	115979
#	128429
#	140229
#	162668
#	178668
#
# Disc length: 2628 seconds
#
# Revision: 1
# Processed by: cddbd v1.5.1PL0 Copyright (c) Steve Scherf et al.
# Submitted via: CDex 1.50Beta5
#
DISCID=a20a420c
DTITLE=さまざまなアーティスト - イエスタデイをうたって オリジナルサウンドストーリー
DYEAR=1900
DGENRE=Other
TTITLE0=guitar 佐藤誠/「イエスタデイをうたって」メインテーマ
TTITLE1=演奏・編曲/鈴木一郎、ウィーン弦楽四重奏団/Penny Lane
TTITLE2=宍戸留美/ぼくたちの失敗
TTITLE3=guitar 佐藤誠/晴のテーマ
TTITLE4=guitar 佐藤誠/Girl
TTITLE5=宍戸留美/ぼくが君の思い出になってあげよう
TTITLE6=guitar 佐藤誠/焼ユサメ、ホ・ニ。シ・゛
TTITLE7=ア鮹ユ。ヲハヤカハ/ホ?レー?コ。「・ヲ・」。シ・鷂抗攣予伝嫦YESTERDAY
TTITLE8=かかずゆみ/君と淋しい風になる
TTITLE9=guitar 佐藤誠/宣戦布告
TTITLE10=かかずゆみ/みんな夢でありました
TTITLE11=guitar 佐藤誠/Let It Be
EXTD=
EXTT0=
EXTT1=
EXTT2=
EXTT3=
EXTT4=
EXTT5=
EXTT6=
EXTT7=
EXTT8=
EXTT9=
EXTT10=
EXTT11=
PLAYORDER=
